solid CATIA STL
  facet normal  0.000000e+000  0.000000e+000 -1.000000e+000
    outer loop
      vertex  6.757267e+000 -3.254128e+000  1.500000e+001
      vertex  1.236068e+000 -3.804226e+000  1.500000e+001
      vertex  3.236068e+000 -2.351141e+000  1.500000e+001
    endloop
  endfacet
  facet normal  0.000000e+000  0.000000e+000 -9.999999e-001
    outer loop
      vertex  6.757267e+000 -3.254128e+000  1.500000e+001
      vertex  4.676174e+000 -5.863736e+000  1.500000e+001
      vertex  1.236068e+000 -3.804226e+000  1.500000e+001
    endloop
  endfacet
  facet normal  0.000000e+000  0.000000e+000 -1.000000e+000
    outer loop
      vertex -1.668907e+000 -7.311959e+000  1.500000e+001
      vertex  4.676174e+000 -5.863736e+000  1.500000e+001
      vertex  1.668907e+000 -7.311959e+000  1.500000e+001
    endloop
  endfacet
  facet normal  0.000000e+000  0.000000e+000 -1.000000e+000
    outer loop
      vertex  4.676174e+000 -5.863736e+000  1.500000e+001
      vertex -1.668907e+000 -7.311959e+000  1.500000e+001
      vertex  1.236068e+000 -3.804226e+000  1.500000e+001
    endloop
  endfacet
  facet normal  0.000000e+000  0.000000e+000 -9.999999e-001
    outer loop
      vertex  1.236068e+000 -3.804226e+000  1.500000e+001
      vertex -1.668907e+000 -7.311959e+000  1.500000e+001
      vertex -4.676174e+000 -5.863736e+000  1.500000e+001
    endloop
  endfacet
  facet normal  0.000000e+000  0.000000e+000 -1.000000e+000
    outer loop
      vertex  1.236068e+000 -3.804226e+000  1.500000e+001
      vertex -4.676174e+000 -5.863736e+000  1.500000e+001
      vertex -1.236068e+000 -3.804226e+000  1.500000e+001
    endloop
  endfacet
  facet normal  -0.000000e+000  0.000000e+000 -1.000000e+000
    outer loop
      vertex -1.236068e+000 -3.804226e+000  1.500000e+001
      vertex -4.676174e+000 -5.863736e+000  1.500000e+001
      vertex -6.757267e+000 -3.254128e+000  1.500000e+001
    endloop
  endfacet
  facet normal  0.000000e+000  0.000000e+000 -1.000000e+000
    outer loop
      vertex -1.236068e+000 -3.804226e+000  1.500000e+001
      vertex -6.757267e+000 -3.254128e+000  1.500000e+001
      vertex -3.236068e+000 -2.351141e+000  1.500000e+001
    endloop
  endfacet
  facet normal  0.000000e+000  -0.000000e+000 -9.999999e-001
    outer loop
      vertex -6.757267e+000  3.254128e+000  1.500000e+001
      vertex -4.676174e+000  5.863736e+000  1.500000e+001
      vertex -1.236068e+000  3.804226e+000  1.500000e+001
    endloop
  endfacet
  facet normal  0.000000e+000  0.000000e+000 -1.000000e+000
    outer loop
      vertex -1.236068e+000  3.804226e+000  1.500000e+001
      vertex -4.676174e+000  5.863736e+000  1.500000e+001
      vertex -1.668907e+000  7.311959e+000  1.500000e+001
    endloop
  endfacet
  facet normal  0.000000e+000  0.000000e+000 -9.999999e-001
    outer loop
      vertex -1.236068e+000  3.804226e+000  1.500000e+001
      vertex -1.668907e+000  7.311959e+000  1.500000e+001
      vertex  1.236068e+000  3.804226e+000  1.500000e+001
    endloop
  endfacet
  facet normal  0.000000e+000  0.000000e+000 -1.000000e+000
    outer loop
      vertex  1.236068e+000  3.804226e+000  1.500000e+001
      vertex -1.668907e+000  7.311959e+000  1.500000e+001
      vertex  1.668907e+000  7.311959e+000  1.500000e+001
    endloop
  endfacet
  facet normal  0.000000e+000  -0.000000e+000 -1.000000e+000
    outer loop
      vertex  1.236068e+000  3.804226e+000  1.500000e+001
      vertex  1.668907e+000  7.311959e+000  1.500000e+001
      vertex  4.676174e+000  5.863736e+000  1.500000e+001
    endloop
  endfacet
  facet normal  0.000000e+000  0.000000e+000 -1.000000e+000
    outer loop
      vertex -4.000000e+000  4.898587e-016  1.500000e+001
      vertex -7.500000e+000  4.249154e-015  1.500000e+001
      vertex -3.236068e+000  2.351141e+000  1.500000e+001
    endloop
  endfacet
  facet normal  -0.000000e+000  0.000000e+000 -1.000000e+000
    outer loop
      vertex -3.236068e+000  2.351141e+000  1.500000e+001
      vertex -7.500000e+000  4.249154e-015  1.500000e+001
      vertex -6.757267e+000  3.254128e+000  1.500000e+001
    endloop
  endfacet
  facet normal  0.000000e+000  0.000000e+000 -1.000000e+000
    outer loop
      vertex -3.236068e+000  2.351141e+000  1.500000e+001
      vertex -6.757267e+000  3.254128e+000  1.500000e+001
      vertex -1.236068e+000  3.804226e+000  1.500000e+001
    endloop
  endfacet
  facet normal  0.000000e+000  0.000000e+000 -1.000000e+000
    outer loop
      vertex -6.757267e+000 -3.254128e+000  1.500000e+001
      vertex -7.500000e+000  4.249154e-015  1.500000e+001
      vertex -3.236068e+000 -2.351141e+000  1.500000e+001
    endloop
  endfacet
  facet normal  0.000000e+000  0.000000e+000 -1.000000e+000
    outer loop
      vertex -3.236068e+000 -2.351141e+000  1.500000e+001
      vertex -7.500000e+000  4.249154e-015  1.500000e+001
      vertex -4.000000e+000  4.898587e-016  1.500000e+001
    endloop
  endfacet
  facet normal  0.000000e+000  0.000000e+000 -1.000000e+000
    outer loop
      vertex  4.676174e+000  5.863736e+000  1.500000e+001
      vertex  6.757267e+000  3.254128e+000  1.500000e+001
      vertex  1.236068e+000  3.804226e+000  1.500000e+001
    endloop
  endfacet
  facet normal  0.000000e+000  0.000000e+000 -1.000000e+000
    outer loop
      vertex  1.236068e+000  3.804226e+000  1.500000e+001
      vertex  6.757267e+000  3.254128e+000  1.500000e+001
      vertex  7.500000e+000  0.000000e+000  1.500000e+001
    endloop
  endfacet
  facet normal  0.000000e+000  0.000000e+000 -1.000000e+000
    outer loop
      vertex  1.236068e+000  3.804226e+000  1.500000e+001
      vertex  7.500000e+000  0.000000e+000  1.500000e+001
      vertex  3.236068e+000  2.351141e+000  1.500000e+001
    endloop
  endfacet
  facet normal  0.000000e+000  0.000000e+000 -1.000000e+000
    outer loop
      vertex  3.236068e+000  2.351141e+000  1.500000e+001
      vertex  7.500000e+000  0.000000e+000  1.500000e+001
      vertex  4.000000e+000  0.000000e+000  1.500000e+001
    endloop
  endfacet
  facet normal  0.000000e+000  0.000000e+000 -1.000000e+000
    outer loop
      vertex  4.000000e+000  0.000000e+000  1.500000e+001
      vertex  7.500000e+000  0.000000e+000  1.500000e+001
      vertex  6.757267e+000 -3.254128e+000  1.500000e+001
    endloop
  endfacet
  facet normal  0.000000e+000  0.000000e+000 -1.000000e+000
    outer loop
      vertex  4.000000e+000  0.000000e+000  1.500000e+001
      vertex  6.757267e+000 -3.254128e+000  1.500000e+001
      vertex  3.236068e+000 -2.351141e+000  1.500000e+001
    endloop
  endfacet
  facet normal  9.510564e-001 -3.090170e-001  0.000000e+000
    outer loop
      vertex  4.000000e+000  0.000000e+000  0.000000e+000
      vertex  4.000000e+000  0.000000e+000  1.500000e+001
      vertex  3.236068e+000 -2.351141e+000  0.000000e+000
    endloop
  endfacet
  facet normal  9.510564e-001 -3.090170e-001  0.000000e+000
    outer loop
      vertex  3.236068e+000 -2.351141e+000  0.000000e+000
      vertex  4.000000e+000  0.000000e+000  1.500000e+001
      vertex  3.236068e+000 -2.351141e+000  1.500000e+001
    endloop
  endfacet
  facet normal  5.877852e-001 -8.090169e-001  0.000000e+000
    outer loop
      vertex  3.236068e+000 -2.351141e+000  0.000000e+000
      vertex  3.236068e+000 -2.351141e+000  1.500000e+001
      vertex  1.236068e+000 -3.804226e+000  0.000000e+000
    endloop
  endfacet
  facet normal  5.877852e-001 -8.090169e-001  0.000000e+000
    outer loop
      vertex  1.236068e+000 -3.804226e+000  0.000000e+000
      vertex  3.236068e+000 -2.351141e+000  1.500000e+001
      vertex  1.236068e+000 -3.804226e+000  1.500000e+001
    endloop
  endfacet
  facet normal  0.000000e+000 -1.000000e+000  -0.000000e+000
    outer loop
      vertex  1.236068e+000 -3.804226e+000  0.000000e+000
      vertex  1.236068e+000 -3.804226e+000  1.500000e+001
      vertex -1.236068e+000 -3.804226e+000  0.000000e+000
    endloop
  endfacet
  facet normal  0.000000e+000 -1.000000e+000  0.000000e+000
    outer loop
      vertex -1.236068e+000 -3.804226e+000  0.000000e+000
      vertex  1.236068e+000 -3.804226e+000  1.500000e+001
      vertex -1.236068e+000 -3.804226e+000  1.500000e+001
    endloop
  endfacet
  facet normal -5.877852e-001 -8.090169e-001  -0.000000e+000
    outer loop
      vertex -1.236068e+000 -3.804226e+000  0.000000e+000
      vertex -1.236068e+000 -3.804226e+000  1.500000e+001
      vertex -3.236068e+000 -2.351141e+000  0.000000e+000
    endloop
  endfacet
  facet normal -5.877852e-001 -8.090169e-001  0.000000e+000
    outer loop
      vertex -3.236068e+000 -2.351141e+000  0.000000e+000
      vertex -1.236068e+000 -3.804226e+000  1.500000e+001
      vertex -3.236068e+000 -2.351141e+000  1.500000e+001
    endloop
  endfacet
  facet normal -9.510564e-001 -3.090170e-001  -0.000000e+000
    outer loop
      vertex -3.236068e+000 -2.351141e+000  0.000000e+000
      vertex -3.236068e+000 -2.351141e+000  1.500000e+001
      vertex -4.000000e+000  4.898587e-016  0.000000e+000
    endloop
  endfacet
  facet normal -9.510564e-001 -3.090170e-001  0.000000e+000
    outer loop
      vertex -4.000000e+000  4.898587e-016  0.000000e+000
      vertex -3.236068e+000 -2.351141e+000  1.500000e+001
      vertex -4.000000e+000  4.898587e-016  1.500000e+001
    endloop
  endfacet
  facet normal -9.510564e-001  3.090170e-001  0.000000e+000
    outer loop
      vertex -4.000000e+000  4.898587e-016  0.000000e+000
      vertex -4.000000e+000  4.898587e-016  1.500000e+001
      vertex -3.236068e+000  2.351141e+000  0.000000e+000
    endloop
  endfacet
  facet normal -9.510564e-001  3.090170e-001  0.000000e+000
    outer loop
      vertex -3.236068e+000  2.351141e+000  0.000000e+000
      vertex -4.000000e+000  4.898587e-016  1.500000e+001
      vertex -3.236068e+000  2.351141e+000  1.500000e+001
    endloop
  endfacet
  facet normal -5.877852e-001  8.090169e-001  0.000000e+000
    outer loop
      vertex -3.236068e+000  2.351141e+000  0.000000e+000
      vertex -3.236068e+000  2.351141e+000  1.500000e+001
      vertex -1.236068e+000  3.804226e+000  0.000000e+000
    endloop
  endfacet
  facet normal -5.877852e-001  8.090169e-001  0.000000e+000
    outer loop
      vertex -1.236068e+000  3.804226e+000  0.000000e+000
      vertex -3.236068e+000  2.351141e+000  1.500000e+001
      vertex -1.236068e+000  3.804226e+000  1.500000e+001
    endloop
  endfacet
  facet normal  0.000000e+000  1.000000e+000  0.000000e+000
    outer loop
      vertex -1.236068e+000  3.804226e+000  0.000000e+000
      vertex -1.236068e+000  3.804226e+000  1.500000e+001
      vertex  1.236068e+000  3.804226e+000  0.000000e+000
    endloop
  endfacet
  facet normal  0.000000e+000  1.000000e+000  -0.000000e+000
    outer loop
      vertex  1.236068e+000  3.804226e+000  0.000000e+000
      vertex -1.236068e+000  3.804226e+000  1.500000e+001
      vertex  1.236068e+000  3.804226e+000  1.500000e+001
    endloop
  endfacet
  facet normal  5.877852e-001  8.090169e-001  0.000000e+000
    outer loop
      vertex  1.236068e+000  3.804226e+000  0.000000e+000
      vertex  1.236068e+000  3.804226e+000  1.500000e+001
      vertex  3.236068e+000  2.351141e+000  0.000000e+000
    endloop
  endfacet
  facet normal  5.877852e-001  8.090169e-001  -0.000000e+000
    outer loop
      vertex  3.236068e+000  2.351141e+000  0.000000e+000
      vertex  1.236068e+000  3.804226e+000  1.500000e+001
      vertex  3.236068e+000  2.351141e+000  1.500000e+001
    endloop
  endfacet
  facet normal  9.510564e-001  3.090170e-001  0.000000e+000
    outer loop
      vertex  3.236068e+000  2.351141e+000  0.000000e+000
      vertex  3.236068e+000  2.351141e+000  1.500000e+001
      vertex  4.000000e+000  0.000000e+000  0.000000e+000
    endloop
  endfacet
  facet normal  9.510564e-001  3.090170e-001  -0.000000e+000
    outer loop
      vertex  4.000000e+000  0.000000e+000  0.000000e+000
      vertex  3.236068e+000  2.351141e+000  1.500000e+001
      vertex  4.000000e+000  0.000000e+000  1.500000e+001
    endloop
  endfacet
  facet normal  -0.000000e+000  0.000000e+000  1.000000e+000
    outer loop
      vertex  1.668907e+000  7.311959e+000  3.500000e+001
      vertex -1.668907e+000  7.311959e+000  3.500000e+001
      vertex  4.676174e+000  5.863736e+000  3.500000e+001
    endloop
  endfacet
  facet normal  0.000000e+000  0.000000e+000  9.999999e-001
    outer loop
      vertex  4.676174e+000  5.863736e+000  3.500000e+001
      vertex -1.668907e+000  7.311959e+000  3.500000e+001
      vertex -4.676174e+000  5.863736e+000  3.500000e+001
    endloop
  endfacet
  facet normal  -0.000000e+000  0.000000e+000  1.000000e+000
    outer loop
      vertex  4.676174e+000  5.863736e+000  3.500000e+001
      vertex -4.676174e+000  5.863736e+000  3.500000e+001
      vertex  6.757267e+000  3.254128e+000  3.500000e+001
    endloop
  endfacet
  facet normal  0.000000e+000  0.000000e+000  1.000000e+000
    outer loop
      vertex  6.757267e+000  3.254128e+000  3.500000e+001
      vertex -4.676174e+000  5.863736e+000  3.500000e+001
      vertex -6.757267e+000  3.254128e+000  3.500000e+001
    endloop
  endfacet
  facet normal  -0.000000e+000  0.000000e+000  1.000000e+000
    outer loop
      vertex  6.757267e+000  3.254128e+000  3.500000e+001
      vertex -6.757267e+000  3.254128e+000  3.500000e+001
      vertex  7.500000e+000  0.000000e+000  3.500000e+001
    endloop
  endfacet
  facet normal  0.000000e+000  0.000000e+000  9.999999e-001
    outer loop
      vertex  7.500000e+000  0.000000e+000  3.500000e+001
      vertex -6.757267e+000  3.254128e+000  3.500000e+001
      vertex -7.500000e+000  4.249154e-015  3.500000e+001
    endloop
  endfacet
  facet normal  0.000000e+000  0.000000e+000  9.999999e-001
    outer loop
      vertex  7.500000e+000  0.000000e+000  3.500000e+001
      vertex -7.500000e+000  4.249154e-015  3.500000e+001
      vertex  6.757267e+000 -3.254128e+000  3.500000e+001
    endloop
  endfacet
  facet normal  0.000000e+000  0.000000e+000  1.000000e+000
    outer loop
      vertex  6.757267e+000 -3.254128e+000  3.500000e+001
      vertex -7.500000e+000  4.249154e-015  3.500000e+001
      vertex -6.757267e+000 -3.254128e+000  3.500000e+001
    endloop
  endfacet
  facet normal  -0.000000e+000  0.000000e+000  1.000000e+000
    outer loop
      vertex  6.757267e+000 -3.254128e+000  3.500000e+001
      vertex -6.757267e+000 -3.254128e+000  3.500000e+001
      vertex  4.676174e+000 -5.863736e+000  3.500000e+001
    endloop
  endfacet
  facet normal  0.000000e+000  0.000000e+000  1.000000e+000
    outer loop
      vertex  4.676174e+000 -5.863736e+000  3.500000e+001
      vertex -6.757267e+000 -3.254128e+000  3.500000e+001
      vertex -4.676174e+000 -5.863736e+000  3.500000e+001
    endloop
  endfacet
  facet normal  -0.000000e+000  0.000000e+000  9.999999e-001
    outer loop
      vertex  4.676174e+000 -5.863736e+000  3.500000e+001
      vertex -4.676174e+000 -5.863736e+000  3.500000e+001
      vertex  1.668907e+000 -7.311959e+000  3.500000e+001
    endloop
  endfacet
  facet normal  0.000000e+000  0.000000e+000  1.000000e+000
    outer loop
      vertex  1.668907e+000 -7.311959e+000  3.500000e+001
      vertex -4.676174e+000 -5.863736e+000  3.500000e+001
      vertex -1.668907e+000 -7.311959e+000  3.500000e+001
    endloop
  endfacet
  facet normal  9.749279e-001 -2.225209e-001  0.000000e+000
    outer loop
      vertex  7.500000e+000  0.000000e+000  1.500000e+001
      vertex  7.500000e+000  0.000000e+000  3.500000e+001
      vertex  6.757267e+000 -3.254128e+000  1.500000e+001
    endloop
  endfacet
  facet normal  9.749279e-001 -2.225209e-001  0.000000e+000
    outer loop
      vertex  6.757267e+000 -3.254128e+000  1.500000e+001
      vertex  7.500000e+000  0.000000e+000  3.500000e+001
      vertex  6.757267e+000 -3.254128e+000  3.500000e+001
    endloop
  endfacet
  facet normal  7.818315e-001 -6.234898e-001  0.000000e+000
    outer loop
      vertex  6.757267e+000 -3.254128e+000  1.500000e+001
      vertex  6.757267e+000 -3.254128e+000  3.500000e+001
      vertex  4.676174e+000 -5.863736e+000  1.500000e+001
    endloop
  endfacet
  facet normal  7.818315e-001 -6.234898e-001  0.000000e+000
    outer loop
      vertex  4.676174e+000 -5.863736e+000  1.500000e+001
      vertex  6.757267e+000 -3.254128e+000  3.500000e+001
      vertex  4.676174e+000 -5.863736e+000  3.500000e+001
    endloop
  endfacet
  facet normal  4.338837e-001 -9.009689e-001  0.000000e+000
    outer loop
      vertex  4.676174e+000 -5.863736e+000  1.500000e+001
      vertex  4.676174e+000 -5.863736e+000  3.500000e+001
      vertex  1.668907e+000 -7.311959e+000  1.500000e+001
    endloop
  endfacet
  facet normal  4.338837e-001 -9.009689e-001  0.000000e+000
    outer loop
      vertex  1.668907e+000 -7.311959e+000  1.500000e+001
      vertex  4.676174e+000 -5.863736e+000  3.500000e+001
      vertex  1.668907e+000 -7.311959e+000  3.500000e+001
    endloop
  endfacet
  facet normal  0.000000e+000 -1.000000e+000  -0.000000e+000
    outer loop
      vertex  1.668907e+000 -7.311959e+000  1.500000e+001
      vertex  1.668907e+000 -7.311959e+000  3.500000e+001
      vertex -1.668907e+000 -7.311959e+000  1.500000e+001
    endloop
  endfacet
  facet normal  0.000000e+000 -1.000000e+000  0.000000e+000
    outer loop
      vertex -1.668907e+000 -7.311959e+000  1.500000e+001
      vertex  1.668907e+000 -7.311959e+000  3.500000e+001
      vertex -1.668907e+000 -7.311959e+000  3.500000e+001
    endloop
  endfacet
  facet normal -4.338837e-001 -9.009689e-001  -0.000000e+000
    outer loop
      vertex -1.668907e+000 -7.311959e+000  1.500000e+001
      vertex -1.668907e+000 -7.311959e+000  3.500000e+001
      vertex -4.676174e+000 -5.863736e+000  1.500000e+001
    endloop
  endfacet
  facet normal -4.338837e-001 -9.009689e-001  0.000000e+000
    outer loop
      vertex -4.676174e+000 -5.863736e+000  1.500000e+001
      vertex -1.668907e+000 -7.311959e+000  3.500000e+001
      vertex -4.676174e+000 -5.863736e+000  3.500000e+001
    endloop
  endfacet
  facet normal -7.818315e-001 -6.234898e-001  -0.000000e+000
    outer loop
      vertex -4.676174e+000 -5.863736e+000  1.500000e+001
      vertex -4.676174e+000 -5.863736e+000  3.500000e+001
      vertex -6.757267e+000 -3.254128e+000  1.500000e+001
    endloop
  endfacet
  facet normal -7.818315e-001 -6.234898e-001  0.000000e+000
    outer loop
      vertex -6.757267e+000 -3.254128e+000  1.500000e+001
      vertex -4.676174e+000 -5.863736e+000  3.500000e+001
      vertex -6.757267e+000 -3.254128e+000  3.500000e+001
    endloop
  endfacet
  facet normal -9.749279e-001 -2.225209e-001  -0.000000e+000
    outer loop
      vertex -6.757267e+000 -3.254128e+000  1.500000e+001
      vertex -6.757267e+000 -3.254128e+000  3.500000e+001
      vertex -7.500000e+000  4.249154e-015  1.500000e+001
    endloop
  endfacet
  facet normal -9.749279e-001 -2.225209e-001  0.000000e+000
    outer loop
      vertex -7.500000e+000  4.249154e-015  1.500000e+001
      vertex -6.757267e+000 -3.254128e+000  3.500000e+001
      vertex -7.500000e+000  4.249154e-015  3.500000e+001
    endloop
  endfacet
  facet normal -9.749279e-001  2.225209e-001  0.000000e+000
    outer loop
      vertex -7.500000e+000  4.249154e-015  1.500000e+001
      vertex -7.500000e+000  4.249154e-015  3.500000e+001
      vertex -6.757267e+000  3.254128e+000  1.500000e+001
    endloop
  endfacet
  facet normal -9.749279e-001  2.225209e-001  0.000000e+000
    outer loop
      vertex -6.757267e+000  3.254128e+000  1.500000e+001
      vertex -7.500000e+000  4.249154e-015  3.500000e+001
      vertex -6.757267e+000  3.254128e+000  3.500000e+001
    endloop
  endfacet
  facet normal -7.818315e-001  6.234898e-001  0.000000e+000
    outer loop
      vertex -6.757267e+000  3.254128e+000  1.500000e+001
      vertex -6.757267e+000  3.254128e+000  3.500000e+001
      vertex -4.676174e+000  5.863736e+000  1.500000e+001
    endloop
  endfacet
  facet normal -7.818315e-001  6.234898e-001  0.000000e+000
    outer loop
      vertex -4.676174e+000  5.863736e+000  1.500000e+001
      vertex -6.757267e+000  3.254128e+000  3.500000e+001
      vertex -4.676174e+000  5.863736e+000  3.500000e+001
    endloop
  endfacet
  facet normal -4.338837e-001  9.009689e-001  0.000000e+000
    outer loop
      vertex -4.676174e+000  5.863736e+000  1.500000e+001
      vertex -4.676174e+000  5.863736e+000  3.500000e+001
      vertex -1.668907e+000  7.311959e+000  1.500000e+001
    endloop
  endfacet
  facet normal -4.338837e-001  9.009689e-001  0.000000e+000
    outer loop
      vertex -1.668907e+000  7.311959e+000  1.500000e+001
      vertex -4.676174e+000  5.863736e+000  3.500000e+001
      vertex -1.668907e+000  7.311959e+000  3.500000e+001
    endloop
  endfacet
  facet normal  0.000000e+000  1.000000e+000  0.000000e+000
    outer loop
      vertex -1.668907e+000  7.311959e+000  1.500000e+001
      vertex -1.668907e+000  7.311959e+000  3.500000e+001
      vertex  1.668907e+000  7.311959e+000  1.500000e+001
    endloop
  endfacet
  facet normal  0.000000e+000  1.000000e+000  -0.000000e+000
    outer loop
      vertex  1.668907e+000  7.311959e+000  1.500000e+001
      vertex -1.668907e+000  7.311959e+000  3.500000e+001
      vertex  1.668907e+000  7.311959e+000  3.500000e+001
    endloop
  endfacet
  facet normal  4.338837e-001  9.009689e-001  0.000000e+000
    outer loop
      vertex  1.668907e+000  7.311959e+000  1.500000e+001
      vertex  1.668907e+000  7.311959e+000  3.500000e+001
      vertex  4.676174e+000  5.863736e+000  1.500000e+001
    endloop
  endfacet
  facet normal  4.338837e-001  9.009689e-001  -0.000000e+000
    outer loop
      vertex  4.676174e+000  5.863736e+000  1.500000e+001
      vertex  1.668907e+000  7.311959e+000  3.500000e+001
      vertex  4.676174e+000  5.863736e+000  3.500000e+001
    endloop
  endfacet
  facet normal  7.818315e-001  6.234898e-001  0.000000e+000
    outer loop
      vertex  4.676174e+000  5.863736e+000  1.500000e+001
      vertex  4.676174e+000  5.863736e+000  3.500000e+001
      vertex  6.757267e+000  3.254128e+000  1.500000e+001
    endloop
  endfacet
  facet normal  7.818315e-001  6.234898e-001  -0.000000e+000
    outer loop
      vertex  6.757267e+000  3.254128e+000  1.500000e+001
      vertex  4.676174e+000  5.863736e+000  3.500000e+001
      vertex  6.757267e+000  3.254128e+000  3.500000e+001
    endloop
  endfacet
  facet normal  9.749279e-001  2.225209e-001  0.000000e+000
    outer loop
      vertex  6.757267e+000  3.254128e+000  1.500000e+001
      vertex  6.757267e+000  3.254128e+000  3.500000e+001
      vertex  7.500000e+000  0.000000e+000  1.500000e+001
    endloop
  endfacet
  facet normal  9.749279e-001  2.225209e-001  -0.000000e+000
    outer loop
      vertex  7.500000e+000  0.000000e+000  1.500000e+001
      vertex  6.757267e+000  3.254128e+000  3.500000e+001
      vertex  7.500000e+000  0.000000e+000  3.500000e+001
    endloop
  endfacet
  facet normal  0.000000e+000  0.000000e+000 -1.000000e+000
    outer loop
      vertex  4.000000e+000  0.000000e+000  0.000000e+000
      vertex -3.236068e+000  2.351141e+000  0.000000e+000
      vertex  3.236068e+000  2.351141e+000  0.000000e+000
    endloop
  endfacet
  facet normal  0.000000e+000  0.000000e+000 -1.000000e+000
    outer loop
      vertex  3.236068e+000  2.351141e+000  0.000000e+000
      vertex -3.236068e+000  2.351141e+000  0.000000e+000
      vertex -1.236068e+000  3.804226e+000  0.000000e+000
    endloop
  endfacet
  facet normal  0.000000e+000  0.000000e+000 -9.999999e-001
    outer loop
      vertex  3.236068e+000  2.351141e+000  0.000000e+000
      vertex -1.236068e+000  3.804226e+000  0.000000e+000
      vertex  1.236068e+000  3.804226e+000  0.000000e+000
    endloop
  endfacet
  facet normal  0.000000e+000  0.000000e+000 -1.000000e+000
    outer loop
      vertex -3.236068e+000  2.351141e+000  0.000000e+000
      vertex  4.000000e+000  0.000000e+000  0.000000e+000
      vertex -4.000000e+000  4.898587e-016  0.000000e+000
    endloop
  endfacet
  facet normal  0.000000e+000  0.000000e+000 -1.000000e+000
    outer loop
      vertex -4.000000e+000  4.898587e-016  0.000000e+000
      vertex  4.000000e+000  0.000000e+000  0.000000e+000
      vertex  3.236068e+000 -2.351141e+000  0.000000e+000
    endloop
  endfacet
  facet normal  0.000000e+000  0.000000e+000 -1.000000e+000
    outer loop
      vertex -4.000000e+000  4.898587e-016  0.000000e+000
      vertex  3.236068e+000 -2.351141e+000  0.000000e+000
      vertex -3.236068e+000 -2.351141e+000  0.000000e+000
    endloop
  endfacet
  facet normal  0.000000e+000  0.000000e+000 -1.000000e+000
    outer loop
      vertex -3.236068e+000 -2.351141e+000  0.000000e+000
      vertex  3.236068e+000 -2.351141e+000  0.000000e+000
      vertex  1.236068e+000 -3.804226e+000  0.000000e+000
    endloop
  endfacet
  facet normal  0.000000e+000  0.000000e+000 -9.999999e-001
    outer loop
      vertex -3.236068e+000 -2.351141e+000  0.000000e+000
      vertex  1.236068e+000 -3.804226e+000  0.000000e+000
      vertex -1.236068e+000 -3.804226e+000  0.000000e+000
    endloop
  endfacet
endsolid CATIA STL
