solid CATIA STL
  facet normal  0.000000e+000  0.000000e+000 -1.000000e+000
    outer loop
      vertex  3.000000e+000 -4.017212e-016  0.000000e+000
      vertex -2.427051e+000  1.763356e+000  0.000000e+000
      vertex  2.427051e+000  1.763356e+000  0.000000e+000
    endloop
  endfacet
  facet normal  0.000000e+000  0.000000e+000 -1.000000e+000
    outer loop
      vertex  2.427051e+000  1.763356e+000  0.000000e+000
      vertex -2.427051e+000  1.763356e+000  0.000000e+000
      vertex -9.270509e-001  2.853170e+000  0.000000e+000
    endloop
  endfacet
  facet normal  0.000000e+000  0.000000e+000 -1.000000e+000
    outer loop
      vertex  2.427051e+000  1.763356e+000  0.000000e+000
      vertex -9.270509e-001  2.853170e+000  0.000000e+000
      vertex  9.270510e-001  2.853169e+000  0.000000e+000
    endloop
  endfacet
  facet normal  0.000000e+000  0.000000e+000 -9.999999e-001
    outer loop
      vertex -2.427051e+000  1.763356e+000  0.000000e+000
      vertex  3.000000e+000 -4.017212e-016  0.000000e+000
      vertex -3.000000e+000  1.427338e-007  0.000000e+000
    endloop
  endfacet
  facet normal  0.000000e+000  0.000000e+000 -9.999999e-001
    outer loop
      vertex -3.000000e+000  1.427338e-007  0.000000e+000
      vertex  3.000000e+000 -4.017212e-016  0.000000e+000
      vertex  2.427051e+000 -1.763356e+000  0.000000e+000
    endloop
  endfacet
  facet normal  0.000000e+000  0.000000e+000 -1.000000e+000
    outer loop
      vertex -3.000000e+000  1.427338e-007  0.000000e+000
      vertex  2.427051e+000 -1.763356e+000  0.000000e+000
      vertex -2.427051e+000 -1.763355e+000  0.000000e+000
    endloop
  endfacet
  facet normal  0.000000e+000  0.000000e+000 -1.000000e+000
    outer loop
      vertex -2.427051e+000 -1.763355e+000  0.000000e+000
      vertex  2.427051e+000 -1.763356e+000  0.000000e+000
      vertex  9.270508e-001 -2.853170e+000  0.000000e+000
    endloop
  endfacet
  facet normal  0.000000e+000  0.000000e+000 -1.000000e+000
    outer loop
      vertex -2.427051e+000 -1.763355e+000  0.000000e+000
      vertex  9.270508e-001 -2.853170e+000  0.000000e+000
      vertex -9.270513e-001 -2.853169e+000  0.000000e+000
    endloop
  endfacet
  facet normal  9.510565e-001 -3.090170e-001  2.162495e-017
    outer loop
      vertex  4.000000e+000 -9.797175e-016  1.000000e+000
      vertex  4.000000e+000  0.000000e+000  1.500000e+001
      vertex  3.236068e+000 -2.351141e+000  1.000000e+000
    endloop
  endfacet
  facet normal  9.510565e-001 -3.090170e-001  0.000000e+000
    outer loop
      vertex  3.236068e+000 -2.351141e+000  1.000000e+000
      vertex  4.000000e+000  0.000000e+000  1.500000e+001
      vertex  3.236068e+000 -2.351141e+000  1.500000e+001
    endloop
  endfacet
  facet normal  5.877853e-001 -8.090169e-001  0.000000e+000
    outer loop
      vertex  3.236068e+000 -2.351141e+000  1.000000e+000
      vertex  3.236068e+000 -2.351141e+000  1.500000e+001
      vertex  1.236068e+000 -3.804226e+000  1.000000e+000
    endloop
  endfacet
  facet normal  5.877853e-001 -8.090169e-001  0.000000e+000
    outer loop
      vertex  1.236068e+000 -3.804226e+000  1.000000e+000
      vertex  3.236068e+000 -2.351141e+000  1.500000e+001
      vertex  1.236068e+000 -3.804226e+000  1.500000e+001
    endloop
  endfacet
  facet normal  0.000000e+000 -1.000000e+000  -0.000000e+000
    outer loop
      vertex  1.236068e+000 -3.804226e+000  1.000000e+000
      vertex  1.236068e+000 -3.804226e+000  1.500000e+001
      vertex -1.236068e+000 -3.804226e+000  1.000000e+000
    endloop
  endfacet
  facet normal  0.000000e+000 -1.000000e+000  0.000000e+000
    outer loop
      vertex -1.236068e+000 -3.804226e+000  1.000000e+000
      vertex  1.236068e+000 -3.804226e+000  1.500000e+001
      vertex -1.236068e+000 -3.804226e+000  1.500000e+001
    endloop
  endfacet
  facet normal -5.877853e-001 -8.090169e-001  -0.000000e+000
    outer loop
      vertex -1.236068e+000 -3.804226e+000  1.000000e+000
      vertex -1.236068e+000 -3.804226e+000  1.500000e+001
      vertex -3.236068e+000 -2.351141e+000  1.000000e+000
    endloop
  endfacet
  facet normal -5.877853e-001 -8.090169e-001  0.000000e+000
    outer loop
      vertex -3.236068e+000 -2.351141e+000  1.000000e+000
      vertex -1.236068e+000 -3.804226e+000  1.500000e+001
      vertex -3.236068e+000 -2.351141e+000  1.500000e+001
    endloop
  endfacet
  facet normal -9.510565e-001 -3.090170e-001  -0.000000e+000
    outer loop
      vertex -3.236068e+000 -2.351141e+000  1.000000e+000
      vertex -3.236068e+000 -2.351141e+000  1.500000e+001
      vertex -4.000000e+000  4.898587e-016  1.000000e+000
    endloop
  endfacet
  facet normal -9.510565e-001 -3.090170e-001  0.000000e+000
    outer loop
      vertex -4.000000e+000  4.898587e-016  1.000000e+000
      vertex -3.236068e+000 -2.351141e+000  1.500000e+001
      vertex -4.000000e+000  4.898587e-016  1.500000e+001
    endloop
  endfacet
  facet normal -9.510565e-001  3.090170e-001  0.000000e+000
    outer loop
      vertex -4.000000e+000  4.898587e-016  1.000000e+000
      vertex -4.000000e+000  4.898587e-016  1.500000e+001
      vertex -3.236068e+000  2.351141e+000  1.000000e+000
    endloop
  endfacet
  facet normal -9.510565e-001  3.090170e-001  0.000000e+000
    outer loop
      vertex -3.236068e+000  2.351141e+000  1.000000e+000
      vertex -4.000000e+000  4.898587e-016  1.500000e+001
      vertex -3.236068e+000  2.351141e+000  1.500000e+001
    endloop
  endfacet
  facet normal -5.877853e-001  8.090169e-001  0.000000e+000
    outer loop
      vertex -3.236068e+000  2.351141e+000  1.000000e+000
      vertex -3.236068e+000  2.351141e+000  1.500000e+001
      vertex -1.236068e+000  3.804226e+000  1.000000e+000
    endloop
  endfacet
  facet normal -5.877853e-001  8.090169e-001  0.000000e+000
    outer loop
      vertex -1.236068e+000  3.804226e+000  1.000000e+000
      vertex -3.236068e+000  2.351141e+000  1.500000e+001
      vertex -1.236068e+000  3.804226e+000  1.500000e+001
    endloop
  endfacet
  facet normal  0.000000e+000  1.000000e+000  0.000000e+000
    outer loop
      vertex -1.236068e+000  3.804226e+000  1.000000e+000
      vertex -1.236068e+000  3.804226e+000  1.500000e+001
      vertex  1.236068e+000  3.804226e+000  1.000000e+000
    endloop
  endfacet
  facet normal  0.000000e+000  1.000000e+000  -0.000000e+000
    outer loop
      vertex  1.236068e+000  3.804226e+000  1.000000e+000
      vertex -1.236068e+000  3.804226e+000  1.500000e+001
      vertex  1.236068e+000  3.804226e+000  1.500000e+001
    endloop
  endfacet
  facet normal  5.877853e-001  8.090169e-001  0.000000e+000
    outer loop
      vertex  1.236068e+000  3.804226e+000  1.000000e+000
      vertex  1.236068e+000  3.804226e+000  1.500000e+001
      vertex  3.236068e+000  2.351141e+000  1.000000e+000
    endloop
  endfacet
  facet normal  5.877853e-001  8.090169e-001  -0.000000e+000
    outer loop
      vertex  3.236068e+000  2.351141e+000  1.000000e+000
      vertex  1.236068e+000  3.804226e+000  1.500000e+001
      vertex  3.236068e+000  2.351141e+000  1.500000e+001
    endloop
  endfacet
  facet normal  9.510565e-001  3.090170e-001  0.000000e+000
    outer loop
      vertex  3.236068e+000  2.351141e+000  1.000000e+000
      vertex  3.236068e+000  2.351141e+000  1.500000e+001
      vertex  4.000000e+000 -9.797175e-016  1.000000e+000
    endloop
  endfacet
  facet normal  9.510565e-001  3.090170e-001 -2.162495e-017
    outer loop
      vertex  4.000000e+000 -9.797175e-016  1.000000e+000
      vertex  3.236068e+000  2.351141e+000  1.500000e+001
      vertex  4.000000e+000  0.000000e+000  1.500000e+001
    endloop
  endfacet
  facet normal  6.891517e-001  2.239190e-001 -6.891517e-001
    outer loop
      vertex  4.000000e+000 -9.797175e-016  1.000000e+000
      vertex  3.000000e+000 -4.017212e-016  0.000000e+000
      vertex  3.236068e+000  2.351141e+000  1.000000e+000
    endloop
  endfacet
  facet normal  6.891518e-001  2.239190e-001 -6.891518e-001
    outer loop
      vertex  3.236068e+000  2.351141e+000  1.000000e+000
      vertex  3.000000e+000 -4.017212e-016  0.000000e+000
      vertex  2.427051e+000  1.763356e+000  0.000000e+000
    endloop
  endfacet
  facet normal  4.259192e-001  5.862275e-001 -6.891517e-001
    outer loop
      vertex  3.236068e+000  2.351141e+000  1.000000e+000
      vertex  2.427051e+000  1.763356e+000  0.000000e+000
      vertex  1.236068e+000  3.804226e+000  1.000000e+000
    endloop
  endfacet
  facet normal  4.259192e-001  5.862275e-001 -6.891519e-001
    outer loop
      vertex  1.236068e+000  3.804226e+000  1.000000e+000
      vertex  2.427051e+000  1.763356e+000  0.000000e+000
      vertex  9.270510e-001  2.853169e+000  0.000000e+000
    endloop
  endfacet
  facet normal  0.000000e+000  7.246169e-001 -6.891518e-001
    outer loop
      vertex  1.236068e+000  3.804226e+000  1.000000e+000
      vertex  9.270510e-001  2.853169e+000  0.000000e+000
      vertex -1.236068e+000  3.804226e+000  1.000000e+000
    endloop
  endfacet
  facet normal  9.317836e-008  7.246171e-001 -6.891518e-001
    outer loop
      vertex -1.236068e+000  3.804226e+000  1.000000e+000
      vertex  9.270510e-001  2.853169e+000  0.000000e+000
      vertex -9.270509e-001  2.853170e+000  0.000000e+000
    endloop
  endfacet
  facet normal -4.259192e-001  5.862274e-001 -6.891517e-001
    outer loop
      vertex -1.236068e+000  3.804226e+000  1.000000e+000
      vertex -9.270509e-001  2.853170e+000  0.000000e+000
      vertex -3.236068e+000  2.351141e+000  1.000000e+000
    endloop
  endfacet
  facet normal -4.259192e-001  5.862275e-001 -6.891518e-001
    outer loop
      vertex -3.236068e+000  2.351141e+000  1.000000e+000
      vertex -9.270509e-001  2.853170e+000  0.000000e+000
      vertex -2.427051e+000  1.763356e+000  0.000000e+000
    endloop
  endfacet
  facet normal -6.891516e-001  2.239189e-001 -6.891518e-001
    outer loop
      vertex -3.236068e+000  2.351141e+000  1.000000e+000
      vertex -2.427051e+000  1.763356e+000  0.000000e+000
      vertex -4.000000e+000  4.898587e-016  1.000000e+000
    endloop
  endfacet
  facet normal -6.891518e-001  2.239190e-001 -6.891518e-001
    outer loop
      vertex -4.000000e+000  4.898587e-016  1.000000e+000
      vertex -2.427051e+000  1.763356e+000  0.000000e+000
      vertex -3.000000e+000  1.427338e-007  0.000000e+000
    endloop
  endfacet
  facet normal -6.891517e-001 -2.239190e-001 -6.891518e-001
    outer loop
      vertex -4.000000e+000  4.898587e-016  1.000000e+000
      vertex -3.000000e+000  1.427338e-007  0.000000e+000
      vertex -3.236068e+000 -2.351141e+000  1.000000e+000
    endloop
  endfacet
  facet normal -6.891518e-001 -2.239189e-001 -6.891516e-001
    outer loop
      vertex -3.236068e+000 -2.351141e+000  1.000000e+000
      vertex -3.000000e+000  1.427338e-007  0.000000e+000
      vertex -2.427051e+000 -1.763355e+000  0.000000e+000
    endloop
  endfacet
  facet normal -4.259191e-001 -5.862274e-001 -6.891518e-001
    outer loop
      vertex -3.236068e+000 -2.351141e+000  1.000000e+000
      vertex -2.427051e+000 -1.763355e+000  0.000000e+000
      vertex -1.236068e+000 -3.804226e+000  1.000000e+000
    endloop
  endfacet
  facet normal -4.259193e-001 -5.862275e-001 -6.891518e-001
    outer loop
      vertex -1.236068e+000 -3.804226e+000  1.000000e+000
      vertex -2.427051e+000 -1.763355e+000  0.000000e+000
      vertex -9.270513e-001 -2.853169e+000  0.000000e+000
    endloop
  endfacet
  facet normal  0.000000e+000 -7.246169e-001 -6.891518e-001
    outer loop
      vertex -1.236068e+000 -3.804226e+000  1.000000e+000
      vertex -9.270513e-001 -2.853169e+000  0.000000e+000
      vertex  1.236068e+000 -3.804226e+000  1.000000e+000
    endloop
  endfacet
  facet normal -9.317835e-008 -7.246171e-001 -6.891518e-001
    outer loop
      vertex  1.236068e+000 -3.804226e+000  1.000000e+000
      vertex -9.270513e-001 -2.853169e+000  0.000000e+000
      vertex  9.270508e-001 -2.853170e+000  0.000000e+000
    endloop
  endfacet
  facet normal  4.259192e-001 -5.862274e-001 -6.891518e-001
    outer loop
      vertex  1.236068e+000 -3.804226e+000  1.000000e+000
      vertex  9.270508e-001 -2.853170e+000  0.000000e+000
      vertex  3.236068e+000 -2.351141e+000  1.000000e+000
    endloop
  endfacet
  facet normal  4.259192e-001 -5.862275e-001 -6.891518e-001
    outer loop
      vertex  3.236068e+000 -2.351141e+000  1.000000e+000
      vertex  9.270508e-001 -2.853170e+000  0.000000e+000
      vertex  2.427051e+000 -1.763356e+000  0.000000e+000
    endloop
  endfacet
  facet normal  6.891516e-001 -2.239189e-001 -6.891518e-001
    outer loop
      vertex  3.236068e+000 -2.351141e+000  1.000000e+000
      vertex  2.427051e+000 -1.763356e+000  0.000000e+000
      vertex  4.000000e+000 -9.797175e-016  1.000000e+000
    endloop
  endfacet
  facet normal  6.891518e-001 -2.239190e-001 -6.891518e-001
    outer loop
      vertex  4.000000e+000 -9.797175e-016  1.000000e+000
      vertex  2.427051e+000 -1.763356e+000  0.000000e+000
      vertex  3.000000e+000 -4.017212e-016  0.000000e+000
    endloop
  endfacet
  facet normal  9.542513e-001  2.990057e-001  0.000000e+000
    outer loop
      vertex  8.775826e+000  4.794255e+000  1.600000e+001
      vertex  8.775826e+000  4.794255e+000  1.882000e+001
      vertex  9.942488e+000  1.070951e+000  1.600000e+001
    endloop
  endfacet
  facet normal  9.542513e-001  2.990057e-001  -0.000000e+000
    outer loop
      vertex  9.942488e+000  1.070951e+000  1.600000e+001
      vertex  8.775826e+000  4.794255e+000  1.882000e+001
      vertex  9.942488e+000  1.070951e+000  1.882000e+001
    endloop
  endfacet
  facet normal  9.960377e-001 -8.893099e-002  0.000000e+000
    outer loop
      vertex  9.942488e+000  1.070951e+000  1.600000e+001
      vertex  9.942488e+000  1.070951e+000  1.882000e+001
      vertex  9.595496e+000 -2.815395e+000  1.600000e+001
    endloop
  endfacet
  facet normal  9.960377e-001 -8.893099e-002  0.000000e+000
    outer loop
      vertex  9.595496e+000 -2.815395e+000  1.600000e+001
      vertex  9.942488e+000  1.070951e+000  1.882000e+001
      vertex  9.595496e+000 -2.815395e+000  1.882000e+001
    endloop
  endfacet
  facet normal  8.861865e-001 -4.633287e-001  0.000000e+000
    outer loop
      vertex  9.595496e+000 -2.815395e+000  1.600000e+001
      vertex  9.595496e+000 -2.815395e+000  1.882000e+001
      vertex  7.787677e+000 -6.273124e+000  1.600000e+001
    endloop
  endfacet
  facet normal  8.861865e-001 -4.633287e-001  0.000000e+000
    outer loop
      vertex  7.787677e+000 -6.273124e+000  1.600000e+001
      vertex  9.595496e+000 -2.815395e+000  1.882000e+001
      vertex  7.787677e+000 -6.273124e+000  1.882000e+001
    endloop
  endfacet
  facet normal  6.414214e-001 -7.671888e-001  0.000000e+000
    outer loop
      vertex  7.787677e+000 -6.273124e+000  1.600000e+001
      vertex  7.787677e+000 -6.273124e+000  1.882000e+001
      vertex  4.794255e+000 -8.775826e+000  1.600000e+001
    endloop
  endfacet
  facet normal  6.414214e-001 -7.671888e-001  0.000000e+000
    outer loop
      vertex  4.794255e+000 -8.775826e+000  1.600000e+001
      vertex  7.787677e+000 -6.273124e+000  1.882000e+001
      vertex  4.794255e+000 -8.775826e+000  1.882000e+001
    endloop
  endfacet
  facet normal  2.990057e-001 -9.542513e-001  0.000000e+000
    outer loop
      vertex  4.794255e+000 -8.775826e+000  1.600000e+001
      vertex  4.794255e+000 -8.775826e+000  1.882000e+001
      vertex  1.070951e+000 -9.942488e+000  1.600000e+001
    endloop
  endfacet
  facet normal  2.990057e-001 -9.542513e-001  0.000000e+000
    outer loop
      vertex  1.070951e+000 -9.942488e+000  1.600000e+001
      vertex  4.794255e+000 -8.775826e+000  1.882000e+001
      vertex  1.070951e+000 -9.942488e+000  1.882000e+001
    endloop
  endfacet
  facet normal -8.893099e-002 -9.960377e-001  -0.000000e+000
    outer loop
      vertex  1.070951e+000 -9.942488e+000  1.600000e+001
      vertex  1.070951e+000 -9.942488e+000  1.882000e+001
      vertex -2.815395e+000 -9.595496e+000  1.600000e+001
    endloop
  endfacet
  facet normal -8.893099e-002 -9.960377e-001  0.000000e+000
    outer loop
      vertex -2.815395e+000 -9.595496e+000  1.600000e+001
      vertex  1.070951e+000 -9.942488e+000  1.882000e+001
      vertex -2.815395e+000 -9.595496e+000  1.882000e+001
    endloop
  endfacet
  facet normal -4.633287e-001 -8.861865e-001  -0.000000e+000
    outer loop
      vertex -2.815395e+000 -9.595496e+000  1.600000e+001
      vertex -2.815395e+000 -9.595496e+000  1.882000e+001
      vertex -6.273124e+000 -7.787677e+000  1.600000e+001
    endloop
  endfacet
  facet normal -4.633287e-001 -8.861865e-001  0.000000e+000
    outer loop
      vertex -6.273124e+000 -7.787677e+000  1.600000e+001
      vertex -2.815395e+000 -9.595496e+000  1.882000e+001
      vertex -6.273124e+000 -7.787677e+000  1.882000e+001
    endloop
  endfacet
  facet normal -7.671888e-001 -6.414214e-001  -0.000000e+000
    outer loop
      vertex -6.273124e+000 -7.787677e+000  1.600000e+001
      vertex -6.273124e+000 -7.787677e+000  1.882000e+001
      vertex -8.775826e+000 -4.794255e+000  1.600000e+001
    endloop
  endfacet
  facet normal -7.671888e-001 -6.414214e-001  0.000000e+000
    outer loop
      vertex -8.775826e+000 -4.794255e+000  1.600000e+001
      vertex -6.273124e+000 -7.787677e+000  1.882000e+001
      vertex -8.775826e+000 -4.794255e+000  1.882000e+001
    endloop
  endfacet
  facet normal -9.542513e-001 -2.990057e-001  -0.000000e+000
    outer loop
      vertex -8.775826e+000 -4.794255e+000  1.600000e+001
      vertex -8.775826e+000 -4.794255e+000  1.882000e+001
      vertex -9.942488e+000 -1.070951e+000  1.600000e+001
    endloop
  endfacet
  facet normal -9.542513e-001 -2.990057e-001  0.000000e+000
    outer loop
      vertex -9.942488e+000 -1.070951e+000  1.600000e+001
      vertex -8.775826e+000 -4.794255e+000  1.882000e+001
      vertex -9.942488e+000 -1.070951e+000  1.882000e+001
    endloop
  endfacet
  facet normal -9.960377e-001  8.893099e-002  0.000000e+000
    outer loop
      vertex -9.942488e+000 -1.070951e+000  1.600000e+001
      vertex -9.942488e+000 -1.070951e+000  1.882000e+001
      vertex -9.595496e+000  2.815395e+000  1.600000e+001
    endloop
  endfacet
  facet normal -9.960377e-001  8.893099e-002  0.000000e+000
    outer loop
      vertex -9.595496e+000  2.815395e+000  1.600000e+001
      vertex -9.942488e+000 -1.070951e+000  1.882000e+001
      vertex -9.595496e+000  2.815395e+000  1.882000e+001
    endloop
  endfacet
  facet normal -8.861865e-001  4.633287e-001  0.000000e+000
    outer loop
      vertex -9.595496e+000  2.815395e+000  1.600000e+001
      vertex -9.595496e+000  2.815395e+000  1.882000e+001
      vertex -7.787677e+000  6.273124e+000  1.600000e+001
    endloop
  endfacet
  facet normal -8.861865e-001  4.633287e-001  0.000000e+000
    outer loop
      vertex -7.787677e+000  6.273124e+000  1.600000e+001
      vertex -9.595496e+000  2.815395e+000  1.882000e+001
      vertex -7.787677e+000  6.273124e+000  1.882000e+001
    endloop
  endfacet
  facet normal -6.414214e-001  7.671888e-001  0.000000e+000
    outer loop
      vertex -7.787677e+000  6.273124e+000  1.600000e+001
      vertex -7.787677e+000  6.273124e+000  1.882000e+001
      vertex -4.794255e+000  8.775826e+000  1.600000e+001
    endloop
  endfacet
  facet normal -6.414214e-001  7.671888e-001  0.000000e+000
    outer loop
      vertex -4.794255e+000  8.775826e+000  1.600000e+001
      vertex -7.787677e+000  6.273124e+000  1.882000e+001
      vertex -4.794255e+000  8.775826e+000  1.882000e+001
    endloop
  endfacet
  facet normal -2.990057e-001  9.542513e-001  0.000000e+000
    outer loop
      vertex -4.794255e+000  8.775826e+000  1.600000e+001
      vertex -4.794255e+000  8.775826e+000  1.882000e+001
      vertex -1.070951e+000  9.942488e+000  1.600000e+001
    endloop
  endfacet
  facet normal -2.990057e-001  9.542513e-001  0.000000e+000
    outer loop
      vertex -1.070951e+000  9.942488e+000  1.600000e+001
      vertex -4.794255e+000  8.775826e+000  1.882000e+001
      vertex -1.070951e+000  9.942488e+000  1.882000e+001
    endloop
  endfacet
  facet normal  8.893099e-002  9.960377e-001  0.000000e+000
    outer loop
      vertex -1.070951e+000  9.942488e+000  1.600000e+001
      vertex -1.070951e+000  9.942488e+000  1.882000e+001
      vertex  2.815395e+000  9.595496e+000  1.600000e+001
    endloop
  endfacet
  facet normal  8.893099e-002  9.960377e-001  -0.000000e+000
    outer loop
      vertex  2.815395e+000  9.595496e+000  1.600000e+001
      vertex -1.070951e+000  9.942488e+000  1.882000e+001
      vertex  2.815395e+000  9.595496e+000  1.882000e+001
    endloop
  endfacet
  facet normal  4.633287e-001  8.861865e-001  0.000000e+000
    outer loop
      vertex  2.815395e+000  9.595496e+000  1.600000e+001
      vertex  2.815395e+000  9.595496e+000  1.882000e+001
      vertex  6.273124e+000  7.787677e+000  1.600000e+001
    endloop
  endfacet
  facet normal  4.633287e-001  8.861865e-001  -0.000000e+000
    outer loop
      vertex  6.273124e+000  7.787677e+000  1.600000e+001
      vertex  2.815395e+000  9.595496e+000  1.882000e+001
      vertex  6.273124e+000  7.787677e+000  1.882000e+001
    endloop
  endfacet
  facet normal  7.671888e-001  6.414214e-001  0.000000e+000
    outer loop
      vertex  6.273124e+000  7.787677e+000  1.600000e+001
      vertex  6.273124e+000  7.787677e+000  1.882000e+001
      vertex  8.775826e+000  4.794255e+000  1.600000e+001
    endloop
  endfacet
  facet normal  7.671888e-001  6.414214e-001  -0.000000e+000
    outer loop
      vertex  8.775826e+000  4.794255e+000  1.600000e+001
      vertex  6.273124e+000  7.787677e+000  1.882000e+001
      vertex  8.775826e+000  4.794255e+000  1.882000e+001
    endloop
  endfacet
  facet normal  0.000000e+000  0.000000e+000 -1.000000e+000
    outer loop
      vertex  9.638562e-001 -8.948239e+000  1.500000e+001
      vertex  7.008910e+000 -5.645811e+000  1.500000e+001
      vertex  4.314830e+000 -7.898243e+000  1.500000e+001
    endloop
  endfacet
  facet normal  0.000000e+000  0.000000e+000 -1.000000e+000
    outer loop
      vertex  7.008910e+000 -5.645811e+000  1.500000e+001
      vertex  9.638562e-001 -8.948239e+000  1.500000e+001
      vertex  1.236068e+000 -3.804226e+000  1.500000e+001
    endloop
  endfacet
  facet normal  0.000000e+000  0.000000e+000 -9.999999e-001
    outer loop
      vertex  1.236068e+000 -3.804226e+000  1.500000e+001
      vertex  9.638562e-001 -8.948239e+000  1.500000e+001
      vertex -2.533856e+000 -8.635946e+000  1.500000e+001
    endloop
  endfacet
  facet normal  0.000000e+000  0.000000e+000 -1.000000e+000
    outer loop
      vertex  1.236068e+000 -3.804226e+000  1.500000e+001
      vertex -2.533856e+000 -8.635946e+000  1.500000e+001
      vertex -1.236068e+000 -3.804226e+000  1.500000e+001
    endloop
  endfacet
  facet normal  0.000000e+000  0.000000e+000 -1.000000e+000
    outer loop
      vertex -1.236068e+000 -3.804226e+000  1.500000e+001
      vertex -2.533856e+000 -8.635946e+000  1.500000e+001
      vertex -5.645811e+000 -7.008910e+000  1.500000e+001
    endloop
  endfacet
  facet normal  0.000000e+000  0.000000e+000 -1.000000e+000
    outer loop
      vertex -1.236068e+000 -3.804226e+000  1.500000e+001
      vertex -5.645811e+000 -7.008910e+000  1.500000e+001
      vertex -7.898243e+000 -4.314830e+000  1.500000e+001
    endloop
  endfacet
  facet normal  0.000000e+000  -0.000000e+000 -1.000000e+000
    outer loop
      vertex  1.236068e+000  3.804226e+000  1.500000e+001
      vertex  5.645812e+000  7.008909e+000  1.500000e+001
      vertex  7.898243e+000  4.314830e+000  1.500000e+001
    endloop
  endfacet
  facet normal  0.000000e+000  0.000000e+000 -1.000000e+000
    outer loop
      vertex  5.645812e+000  7.008909e+000  1.500000e+001
      vertex  1.236068e+000  3.804226e+000  1.500000e+001
      vertex  2.533856e+000  8.635946e+000  1.500000e+001
    endloop
  endfacet
  facet normal  0.000000e+000  0.000000e+000 -1.000000e+000
    outer loop
      vertex  2.533856e+000  8.635946e+000  1.500000e+001
      vertex  1.236068e+000  3.804226e+000  1.500000e+001
      vertex -1.236068e+000  3.804226e+000  1.500000e+001
    endloop
  endfacet
  facet normal  0.000000e+000  0.000000e+000 -1.000000e+000
    outer loop
      vertex  2.533856e+000  8.635946e+000  1.500000e+001
      vertex -1.236068e+000  3.804226e+000  1.500000e+001
      vertex -9.638558e-001  8.948239e+000  1.500000e+001
    endloop
  endfacet
  facet normal  0.000000e+000  0.000000e+000 -1.000000e+000
    outer loop
      vertex -9.638558e-001  8.948239e+000  1.500000e+001
      vertex -1.236068e+000  3.804226e+000  1.500000e+001
      vertex -7.008910e+000  5.645812e+000  1.500000e+001
    endloop
  endfacet
  facet normal  0.000000e+000  0.000000e+000 -1.000000e+000
    outer loop
      vertex -9.638558e-001  8.948239e+000  1.500000e+001
      vertex -7.008910e+000  5.645812e+000  1.500000e+001
      vertex -4.314829e+000  7.898243e+000  1.500000e+001
    endloop
  endfacet
  facet normal  0.000000e+000  0.000000e+000 -9.999999e-001
    outer loop
      vertex -1.236068e+000 -3.804226e+000  1.500000e+001
      vertex -7.898243e+000 -4.314830e+000  1.500000e+001
      vertex -3.236068e+000 -2.351141e+000  1.500000e+001
    endloop
  endfacet
  facet normal  -0.000000e+000  0.000000e+000 -1.000000e+000
    outer loop
      vertex -3.236068e+000 -2.351141e+000  1.500000e+001
      vertex -7.898243e+000 -4.314830e+000  1.500000e+001
      vertex -8.948239e+000 -9.638562e-001  1.500000e+001
    endloop
  endfacet
  facet normal  0.000000e+000  0.000000e+000 -9.999999e-001
    outer loop
      vertex -3.236068e+000 -2.351141e+000  1.500000e+001
      vertex -8.948239e+000 -9.638562e-001  1.500000e+001
      vertex -4.000000e+000  4.898587e-016  1.500000e+001
    endloop
  endfacet
  facet normal  -0.000000e+000  0.000000e+000 -1.000000e+000
    outer loop
      vertex -4.000000e+000  4.898587e-016  1.500000e+001
      vertex -8.948239e+000 -9.638562e-001  1.500000e+001
      vertex -8.635946e+000  2.533856e+000  1.500000e+001
    endloop
  endfacet
  facet normal  0.000000e+000  0.000000e+000 -1.000000e+000
    outer loop
      vertex -4.000000e+000  4.898587e-016  1.500000e+001
      vertex -8.635946e+000  2.533856e+000  1.500000e+001
      vertex -3.236068e+000  2.351141e+000  1.500000e+001
    endloop
  endfacet
  facet normal  0.000000e+000  0.000000e+000 -1.000000e+000
    outer loop
      vertex -3.236068e+000  2.351141e+000  1.500000e+001
      vertex -8.635946e+000  2.533856e+000  1.500000e+001
      vertex -7.008910e+000  5.645812e+000  1.500000e+001
    endloop
  endfacet
  facet normal  0.000000e+000  0.000000e+000 -1.000000e+000
    outer loop
      vertex -3.236068e+000  2.351141e+000  1.500000e+001
      vertex -7.008910e+000  5.645812e+000  1.500000e+001
      vertex -1.236068e+000  3.804226e+000  1.500000e+001
    endloop
  endfacet
  facet normal  0.000000e+000  0.000000e+000 -9.999999e-001
    outer loop
      vertex  4.000000e+000  0.000000e+000  1.500000e+001
      vertex  3.236068e+000  2.351141e+000  1.500000e+001
      vertex  8.948239e+000  9.638561e-001  1.500000e+001
    endloop
  endfacet
  facet normal  0.000000e+000  0.000000e+000 -1.000000e+000
    outer loop
      vertex  8.948239e+000  9.638561e-001  1.500000e+001
      vertex  3.236068e+000  2.351141e+000  1.500000e+001
      vertex  1.236068e+000  3.804226e+000  1.500000e+001
    endloop
  endfacet
  facet normal  0.000000e+000  0.000000e+000 -1.000000e+000
    outer loop
      vertex  8.948239e+000  9.638561e-001  1.500000e+001
      vertex  1.236068e+000  3.804226e+000  1.500000e+001
      vertex  7.898243e+000  4.314830e+000  1.500000e+001
    endloop
  endfacet
  facet normal  0.000000e+000  0.000000e+000 -1.000000e+000
    outer loop
      vertex  8.948239e+000  9.638561e-001  1.500000e+001
      vertex  8.635946e+000 -2.533856e+000  1.500000e+001
      vertex  4.000000e+000  0.000000e+000  1.500000e+001
    endloop
  endfacet
  facet normal  0.000000e+000  -0.000000e+000 -1.000000e+000
    outer loop
      vertex  4.000000e+000  0.000000e+000  1.500000e+001
      vertex  8.635946e+000 -2.533856e+000  1.500000e+001
      vertex  3.236068e+000 -2.351141e+000  1.500000e+001
    endloop
  endfacet
  facet normal  0.000000e+000  0.000000e+000 -1.000000e+000
    outer loop
      vertex  8.635946e+000 -2.533856e+000  1.500000e+001
      vertex  7.008910e+000 -5.645811e+000  1.500000e+001
      vertex  3.236068e+000 -2.351141e+000  1.500000e+001
    endloop
  endfacet
  facet normal  0.000000e+000  -0.000000e+000 -9.999999e-001
    outer loop
      vertex  3.236068e+000 -2.351141e+000  1.500000e+001
      vertex  7.008910e+000 -5.645811e+000  1.500000e+001
      vertex  1.236068e+000 -3.804226e+000  1.500000e+001
    endloop
  endfacet
  facet normal -5.477211e-001 -4.579316e-001 -7.002145e-001
    outer loop
      vertex -8.775826e+000 -4.794255e+000  1.600000e+001
      vertex -7.898243e+000 -4.314830e+000  1.500000e+001
      vertex -6.273124e+000 -7.787677e+000  1.600000e+001
    endloop
  endfacet
  facet normal -5.477210e-001 -4.579315e-001 -7.002146e-001
    outer loop
      vertex -6.273124e+000 -7.787677e+000  1.600000e+001
      vertex -7.898243e+000 -4.314830e+000  1.500000e+001
      vertex -5.645811e+000 -7.008910e+000  1.500000e+001
    endloop
  endfacet
  facet normal -3.307854e-001 -6.326773e-001 -7.002144e-001
    outer loop
      vertex -6.273124e+000 -7.787677e+000  1.600000e+001
      vertex -5.645811e+000 -7.008910e+000  1.500000e+001
      vertex -2.815395e+000 -9.595496e+000  1.600000e+001
    endloop
  endfacet
  facet normal -3.307853e-001 -6.326773e-001 -7.002146e-001
    outer loop
      vertex -2.815395e+000 -9.595496e+000  1.600000e+001
      vertex -5.645811e+000 -7.008910e+000  1.500000e+001
      vertex -2.533856e+000 -8.635946e+000  1.500000e+001
    endloop
  endfacet
  facet normal -6.349072e-002 -7.111037e-001 -7.002146e-001
    outer loop
      vertex -2.815395e+000 -9.595496e+000  1.600000e+001
      vertex -2.533856e+000 -8.635946e+000  1.500000e+001
      vertex  1.070951e+000 -9.942488e+000  1.600000e+001
    endloop
  endfacet
  facet normal -6.349088e-002 -7.111040e-001 -7.002144e-001
    outer loop
      vertex  1.070951e+000 -9.942488e+000  1.600000e+001
      vertex -2.533856e+000 -8.635946e+000  1.500000e+001
      vertex  9.638562e-001 -8.948239e+000  1.500000e+001
    endloop
  endfacet
  facet normal  2.134699e-001 -6.812711e-001 -7.002144e-001
    outer loop
      vertex  1.070951e+000 -9.942488e+000  1.600000e+001
      vertex  9.638562e-001 -8.948239e+000  1.500000e+001
      vertex  4.794255e+000 -8.775826e+000  1.600000e+001
    endloop
  endfacet
  facet normal  2.134699e-001 -6.812711e-001 -7.002145e-001
    outer loop
      vertex  4.794255e+000 -8.775826e+000  1.600000e+001
      vertex  9.638562e-001 -8.948239e+000  1.500000e+001
      vertex  4.314830e+000 -7.898243e+000  1.500000e+001
    endloop
  endfacet
  facet normal  4.579316e-001 -5.477211e-001 -7.002145e-001
    outer loop
      vertex  4.794255e+000 -8.775826e+000  1.600000e+001
      vertex  4.314830e+000 -7.898243e+000  1.500000e+001
      vertex  7.787677e+000 -6.273124e+000  1.600000e+001
    endloop
  endfacet
  facet normal  4.579315e-001 -5.477210e-001 -7.002146e-001
    outer loop
      vertex  7.787677e+000 -6.273124e+000  1.600000e+001
      vertex  4.314830e+000 -7.898243e+000  1.500000e+001
      vertex  7.008910e+000 -5.645811e+000  1.500000e+001
    endloop
  endfacet
  facet normal  6.326773e-001 -3.307854e-001 -7.002144e-001
    outer loop
      vertex  7.787677e+000 -6.273124e+000  1.600000e+001
      vertex  7.008910e+000 -5.645811e+000  1.500000e+001
      vertex  9.595496e+000 -2.815395e+000  1.600000e+001
    endloop
  endfacet
  facet normal  6.326773e-001 -3.307853e-001 -7.002146e-001
    outer loop
      vertex  9.595496e+000 -2.815395e+000  1.600000e+001
      vertex  7.008910e+000 -5.645811e+000  1.500000e+001
      vertex  8.635946e+000 -2.533856e+000  1.500000e+001
    endloop
  endfacet
  facet normal  7.111037e-001 -6.349072e-002 -7.002146e-001
    outer loop
      vertex  9.595496e+000 -2.815395e+000  1.600000e+001
      vertex  8.635946e+000 -2.533856e+000  1.500000e+001
      vertex  9.942488e+000  1.070951e+000  1.600000e+001
    endloop
  endfacet
  facet normal  7.111040e-001 -6.349088e-002 -7.002144e-001
    outer loop
      vertex  9.942488e+000  1.070951e+000  1.600000e+001
      vertex  8.635946e+000 -2.533856e+000  1.500000e+001
      vertex  8.948239e+000  9.638561e-001  1.500000e+001
    endloop
  endfacet
  facet normal  6.812711e-001  2.134699e-001 -7.002144e-001
    outer loop
      vertex  9.942488e+000  1.070951e+000  1.600000e+001
      vertex  8.948239e+000  9.638561e-001  1.500000e+001
      vertex  8.775826e+000  4.794255e+000  1.600000e+001
    endloop
  endfacet
  facet normal  6.812711e-001  2.134699e-001 -7.002145e-001
    outer loop
      vertex  8.775826e+000  4.794255e+000  1.600000e+001
      vertex  8.948239e+000  9.638561e-001  1.500000e+001
      vertex  7.898243e+000  4.314830e+000  1.500000e+001
    endloop
  endfacet
  facet normal  5.477211e-001  4.579316e-001 -7.002145e-001
    outer loop
      vertex  8.775826e+000  4.794255e+000  1.600000e+001
      vertex  7.898243e+000  4.314830e+000  1.500000e+001
      vertex  6.273124e+000  7.787677e+000  1.600000e+001
    endloop
  endfacet
  facet normal  5.477210e-001  4.579316e-001 -7.002146e-001
    outer loop
      vertex  6.273124e+000  7.787677e+000  1.600000e+001
      vertex  7.898243e+000  4.314830e+000  1.500000e+001
      vertex  5.645812e+000  7.008909e+000  1.500000e+001
    endloop
  endfacet
  facet normal  3.307854e-001  6.326773e-001 -7.002145e-001
    outer loop
      vertex  6.273124e+000  7.787677e+000  1.600000e+001
      vertex  5.645812e+000  7.008909e+000  1.500000e+001
      vertex  2.815395e+000  9.595496e+000  1.600000e+001
    endloop
  endfacet
  facet normal  3.307854e-001  6.326773e-001 -7.002146e-001
    outer loop
      vertex  2.815395e+000  9.595496e+000  1.600000e+001
      vertex  5.645812e+000  7.008909e+000  1.500000e+001
      vertex  2.533856e+000  8.635946e+000  1.500000e+001
    endloop
  endfacet
  facet normal  6.349073e-002  7.111037e-001 -7.002146e-001
    outer loop
      vertex  2.815395e+000  9.595496e+000  1.600000e+001
      vertex  2.533856e+000  8.635946e+000  1.500000e+001
      vertex -1.070951e+000  9.942488e+000  1.600000e+001
    endloop
  endfacet
  facet normal  6.349088e-002  7.111040e-001 -7.002144e-001
    outer loop
      vertex -1.070951e+000  9.942488e+000  1.600000e+001
      vertex  2.533856e+000  8.635946e+000  1.500000e+001
      vertex -9.638558e-001  8.948239e+000  1.500000e+001
    endloop
  endfacet
  facet normal -2.134699e-001  6.812711e-001 -7.002144e-001
    outer loop
      vertex -1.070951e+000  9.942488e+000  1.600000e+001
      vertex -9.638558e-001  8.948239e+000  1.500000e+001
      vertex -4.794255e+000  8.775826e+000  1.600000e+001
    endloop
  endfacet
  facet normal -2.134699e-001  6.812712e-001 -7.002144e-001
    outer loop
      vertex -4.794255e+000  8.775826e+000  1.600000e+001
      vertex -9.638558e-001  8.948239e+000  1.500000e+001
      vertex -4.314829e+000  7.898243e+000  1.500000e+001
    endloop
  endfacet
  facet normal -4.579316e-001  5.477211e-001 -7.002145e-001
    outer loop
      vertex -4.794255e+000  8.775826e+000  1.600000e+001
      vertex -4.314829e+000  7.898243e+000  1.500000e+001
      vertex -7.787677e+000  6.273124e+000  1.600000e+001
    endloop
  endfacet
  facet normal -4.579316e-001  5.477211e-001 -7.002144e-001
    outer loop
      vertex -7.787677e+000  6.273124e+000  1.600000e+001
      vertex -4.314829e+000  7.898243e+000  1.500000e+001
      vertex -7.008910e+000  5.645812e+000  1.500000e+001
    endloop
  endfacet
  facet normal -6.326775e-001  3.307855e-001 -7.002145e-001
    outer loop
      vertex -7.787677e+000  6.273124e+000  1.600000e+001
      vertex -7.008910e+000  5.645812e+000  1.500000e+001
      vertex -9.595496e+000  2.815395e+000  1.600000e+001
    endloop
  endfacet
  facet normal -6.326773e-001  3.307853e-001 -7.002146e-001
    outer loop
      vertex -9.595496e+000  2.815395e+000  1.600000e+001
      vertex -7.008910e+000  5.645812e+000  1.500000e+001
      vertex -8.635946e+000  2.533856e+000  1.500000e+001
    endloop
  endfacet
  facet normal -7.111037e-001  6.349072e-002 -7.002146e-001
    outer loop
      vertex -9.595496e+000  2.815395e+000  1.600000e+001
      vertex -8.635946e+000  2.533856e+000  1.500000e+001
      vertex -9.942488e+000 -1.070951e+000  1.600000e+001
    endloop
  endfacet
  facet normal -7.111040e-001  6.349088e-002 -7.002144e-001
    outer loop
      vertex -9.942488e+000 -1.070951e+000  1.600000e+001
      vertex -8.635946e+000  2.533856e+000  1.500000e+001
      vertex -8.948239e+000 -9.638562e-001  1.500000e+001
    endloop
  endfacet
  facet normal -6.812711e-001 -2.134699e-001 -7.002144e-001
    outer loop
      vertex -9.942488e+000 -1.070951e+000  1.600000e+001
      vertex -8.948239e+000 -9.638562e-001  1.500000e+001
      vertex -8.775826e+000 -4.794255e+000  1.600000e+001
    endloop
  endfacet
  facet normal -6.812711e-001 -2.134699e-001 -7.002145e-001
    outer loop
      vertex -8.775826e+000 -4.794255e+000  1.600000e+001
      vertex -8.948239e+000 -9.638562e-001  1.500000e+001
      vertex -7.898243e+000 -4.314830e+000  1.500000e+001
    endloop
  endfacet
  facet normal -1.399742e-001 -1.170279e-001  9.832150e-001
    outer loop
      vertex  0.000000e+000  0.000000e+000  1.700000e+001
      vertex  8.775826e+000  4.794255e+000  1.882000e+001
      vertex  6.273124e+000  7.787677e+000  1.882000e+001
    endloop
  endfacet
  facet normal -8.453470e-002 -1.616855e-001  9.832150e-001
    outer loop
      vertex  0.000000e+000  0.000000e+000  1.700000e+001
      vertex  6.273124e+000  7.787677e+000  1.882000e+001
      vertex  2.815395e+000  9.595496e+000  1.882000e+001
    endloop
  endfacet
  facet normal -1.622553e-002 -1.817279e-001  9.832150e-001
    outer loop
      vertex  0.000000e+000  0.000000e+000  1.700000e+001
      vertex  2.815395e+000  9.595496e+000  1.882000e+001
      vertex -1.070951e+000  9.942488e+000  1.882000e+001
    endloop
  endfacet
  facet normal  5.455384e-002 -1.741039e-001  9.832150e-001
    outer loop
      vertex  0.000000e+000  0.000000e+000  1.700000e+001
      vertex -1.070951e+000  9.942488e+000  1.882000e+001
      vertex -4.794255e+000  8.775826e+000  1.882000e+001
    endloop
  endfacet
  facet normal  1.170279e-001 -1.399742e-001  9.832150e-001
    outer loop
      vertex  0.000000e+000  0.000000e+000  1.700000e+001
      vertex -4.794255e+000  8.775826e+000  1.882000e+001
      vertex -7.787677e+000  6.273124e+000  1.882000e+001
    endloop
  endfacet
  facet normal  1.616855e-001 -8.453470e-002  9.832150e-001
    outer loop
      vertex  0.000000e+000  0.000000e+000  1.700000e+001
      vertex -7.787677e+000  6.273124e+000  1.882000e+001
      vertex -9.595496e+000  2.815395e+000  1.882000e+001
    endloop
  endfacet
  facet normal  1.817279e-001 -1.622553e-002  9.832150e-001
    outer loop
      vertex  0.000000e+000  0.000000e+000  1.700000e+001
      vertex -9.595496e+000  2.815395e+000  1.882000e+001
      vertex -9.942488e+000 -1.070951e+000  1.882000e+001
    endloop
  endfacet
  facet normal  1.741039e-001  5.455384e-002  9.832150e-001
    outer loop
      vertex  0.000000e+000  0.000000e+000  1.700000e+001
      vertex -9.942488e+000 -1.070951e+000  1.882000e+001
      vertex -8.775826e+000 -4.794255e+000  1.882000e+001
    endloop
  endfacet
  facet normal  1.399742e-001  1.170279e-001  9.832150e-001
    outer loop
      vertex  0.000000e+000  0.000000e+000  1.700000e+001
      vertex -8.775826e+000 -4.794255e+000  1.882000e+001
      vertex -6.273124e+000 -7.787677e+000  1.882000e+001
    endloop
  endfacet
  facet normal  8.453470e-002  1.616855e-001  9.832150e-001
    outer loop
      vertex  0.000000e+000  0.000000e+000  1.700000e+001
      vertex -6.273124e+000 -7.787677e+000  1.882000e+001
      vertex -2.815395e+000 -9.595496e+000  1.882000e+001
    endloop
  endfacet
  facet normal  1.622553e-002  1.817279e-001  9.832150e-001
    outer loop
      vertex  0.000000e+000  0.000000e+000  1.700000e+001
      vertex -2.815395e+000 -9.595496e+000  1.882000e+001
      vertex  1.070951e+000 -9.942488e+000  1.882000e+001
    endloop
  endfacet
  facet normal -5.455384e-002  1.741039e-001  9.832150e-001
    outer loop
      vertex  0.000000e+000  0.000000e+000  1.700000e+001
      vertex  1.070951e+000 -9.942488e+000  1.882000e+001
      vertex  4.794255e+000 -8.775826e+000  1.882000e+001
    endloop
  endfacet
  facet normal -1.170279e-001  1.399742e-001  9.832150e-001
    outer loop
      vertex  0.000000e+000  0.000000e+000  1.700000e+001
      vertex  4.794255e+000 -8.775826e+000  1.882000e+001
      vertex  7.787677e+000 -6.273124e+000  1.882000e+001
    endloop
  endfacet
  facet normal -1.616855e-001  8.453470e-002  9.832150e-001
    outer loop
      vertex  0.000000e+000  0.000000e+000  1.700000e+001
      vertex  7.787677e+000 -6.273124e+000  1.882000e+001
      vertex  9.595496e+000 -2.815395e+000  1.882000e+001
    endloop
  endfacet
  facet normal -1.817279e-001  1.622553e-002  9.832150e-001
    outer loop
      vertex  0.000000e+000  0.000000e+000  1.700000e+001
      vertex  9.595496e+000 -2.815395e+000  1.882000e+001
      vertex  9.942488e+000  1.070951e+000  1.882000e+001
    endloop
  endfacet
  facet normal -1.741039e-001 -5.455384e-002  9.832150e-001
    outer loop
      vertex  0.000000e+000  0.000000e+000  1.700000e+001
      vertex  9.942488e+000  1.070951e+000  1.882000e+001
      vertex  8.775826e+000  4.794255e+000  1.882000e+001
    endloop
  endfacet
endsolid CATIA STL
